P3
4 4
255
100 0 0
0 0 0
100 80 0
0 80 0
255 0 0
145 0 0
255 80 0
145 80 0
100 0 200
0 0 200
100 80 200
0 80 200
255 0 200
145 0 200
255 80 200
145 80 200